<?xml version="1.0" encoding="UTF-8" standalone="no"?>
<!DOCTYPE svg PUBLIC "-//W3C//DTD SVG 1.1//EN"
 "http://www.w3.org/Graphics/SVG/1.1/DTD/svg11.dtd">
<!-- Generated by graphviz version 6.0.2 (20221011.1828)
 -->
<!-- Title: Figura Pages: 1 -->
<svg width="212pt" height="574pt"
 viewBox="0.00 0.00 212.31 574.00" xmlns="http://www.w3.org/2000/svg" xmlns:xlink="http://www.w3.org/1999/xlink">
<g id="graph0" class="graph" transform="scale(1 1) rotate(0) translate(4 570)">
<title>Figura</title>
<!-- 4064 -->
<g id="4064" class="node">
<title>4064</title>
<ellipse fill="none" stroke="#607b8b" cx="65.16" cy="-455" rx="28.31" ry="25"/>
<text text-anchor="middle" x="65.16" y="-451.3" font-family="Arial" font-size="14.00" fill="white">4064</text>
</g>
<!-- 2608 -->
<g id="2608" class="node">
<title>2608</title>
<ellipse fill="none" stroke="#607b8b" cx="28.16" cy="-369" rx="28.31" ry="25"/>
<text text-anchor="middle" x="28.16" y="-365.3" font-family="Arial" font-size="14.00" fill="white">2608</text>
</g>
<!-- 4064&#45;&gt;2608 -->
<g id="edge2" class="edge">
<title>4064&#45;&gt;2608</title>
<path fill="none" stroke="white" d="M55.24,-431.49C51.22,-422.36 46.5,-411.64 42.14,-401.74"/>
<polygon fill="white" stroke="white" points="45.33,-400.31 38.1,-392.57 38.93,-403.14 45.33,-400.31"/>
</g>
<!-- 9468 -->
<g id="9468" class="node">
<title>9468</title>
<ellipse fill="none" stroke="#607b8b" cx="102.16" cy="-369" rx="28.31" ry="25"/>
<text text-anchor="middle" x="102.16" y="-365.3" font-family="Arial" font-size="14.00" fill="white">9468</text>
</g>
<!-- 4064&#45;&gt;9468 -->
<g id="edge4" class="edge">
<title>4064&#45;&gt;9468</title>
<path fill="none" stroke="white" d="M75.07,-431.49C79.09,-422.36 83.81,-411.64 88.17,-401.74"/>
<polygon fill="white" stroke="white" points="91.38,-403.14 92.21,-392.57 84.98,-400.31 91.38,-403.14"/>
</g>
<!-- 2125 -->
<g id="2125" class="node">
<title>2125</title>
<ellipse fill="none" stroke="#607b8b" cx="28.16" cy="-283" rx="28.31" ry="25"/>
<text text-anchor="middle" x="28.16" y="-279.3" font-family="Arial" font-size="14.00" fill="white">2125</text>
</g>
<!-- 2608&#45;&gt;2125 -->
<g id="edge3" class="edge">
<title>2608&#45;&gt;2125</title>
<path fill="none" stroke="white" d="M28.16,-343.7C28.16,-335.78 28.16,-326.83 28.16,-318.31"/>
<polygon fill="white" stroke="white" points="31.66,-318.24 28.16,-308.24 24.66,-318.24 31.66,-318.24"/>
</g>
<!-- 6040 -->
<g id="6040" class="node">
<title>6040</title>
<ellipse fill="none" stroke="#607b8b" cx="102.16" cy="-283" rx="28.31" ry="25"/>
<text text-anchor="middle" x="102.16" y="-279.3" font-family="Arial" font-size="14.00" fill="white">6040</text>
</g>
<!-- 9468&#45;&gt;6040 -->
<g id="edge5" class="edge">
<title>9468&#45;&gt;6040</title>
<path fill="none" stroke="white" d="M102.16,-343.7C102.16,-335.78 102.16,-326.83 102.16,-318.31"/>
<polygon fill="white" stroke="white" points="105.66,-318.24 102.16,-308.24 98.66,-318.24 105.66,-318.24"/>
</g>
<!-- 5397 -->
<g id="5397" class="node">
<title>5397</title>
<ellipse fill="none" stroke="#607b8b" cx="65.16" cy="-197" rx="28.31" ry="25"/>
<text text-anchor="middle" x="65.16" y="-193.3" font-family="Arial" font-size="14.00" fill="white">5397</text>
</g>
<!-- 6040&#45;&gt;5397 -->
<g id="edge6" class="edge">
<title>6040&#45;&gt;5397</title>
<path fill="none" stroke="white" d="M92.24,-259.49C88.22,-250.36 83.5,-239.64 79.14,-229.74"/>
<polygon fill="white" stroke="white" points="82.33,-228.31 75.1,-220.57 75.93,-231.14 82.33,-228.31"/>
</g>
<!-- 8871 -->
<g id="8871" class="node">
<title>8871</title>
<ellipse fill="none" stroke="#607b8b" cx="139.16" cy="-197" rx="28.31" ry="25"/>
<text text-anchor="middle" x="139.16" y="-193.3" font-family="Arial" font-size="14.00" fill="white">8871</text>
</g>
<!-- 6040&#45;&gt;8871 -->
<g id="edge7" class="edge">
<title>6040&#45;&gt;8871</title>
<path fill="none" stroke="white" d="M112.07,-259.49C116.09,-250.36 120.81,-239.64 125.17,-229.74"/>
<polygon fill="white" stroke="white" points="128.38,-231.14 129.21,-220.57 121.98,-228.31 128.38,-231.14"/>
</g>
<!-- 7739 -->
<g id="7739" class="node">
<title>7739</title>
<ellipse fill="none" stroke="#607b8b" cx="139.16" cy="-111" rx="28.31" ry="25"/>
<text text-anchor="middle" x="139.16" y="-107.3" font-family="Arial" font-size="14.00" fill="white">7739</text>
</g>
<!-- 8871&#45;&gt;7739 -->
<g id="edge8" class="edge">
<title>8871&#45;&gt;7739</title>
<path fill="none" stroke="white" d="M139.16,-171.7C139.16,-163.78 139.16,-154.83 139.16,-146.31"/>
<polygon fill="white" stroke="white" points="142.66,-146.24 139.16,-136.24 135.66,-146.24 142.66,-146.24"/>
</g>
<!-- 7343 -->
<g id="7343" class="node">
<title>7343</title>
<ellipse fill="none" stroke="#607b8b" cx="102.16" cy="-25" rx="28.31" ry="25"/>
<text text-anchor="middle" x="102.16" y="-21.3" font-family="Arial" font-size="14.00" fill="white">7343</text>
</g>
<!-- 7739&#45;&gt;7343 -->
<g id="edge9" class="edge">
<title>7739&#45;&gt;7343</title>
<path fill="none" stroke="white" d="M129.24,-87.49C125.22,-78.36 120.5,-67.64 116.14,-57.74"/>
<polygon fill="white" stroke="white" points="119.33,-56.31 112.1,-48.57 112.93,-59.14 119.33,-56.31"/>
</g>
<!-- 8239 -->
<g id="8239" class="node">
<title>8239</title>
<ellipse fill="none" stroke="#607b8b" cx="176.16" cy="-25" rx="28.31" ry="25"/>
<text text-anchor="middle" x="176.16" y="-21.3" font-family="Arial" font-size="14.00" fill="white">8239</text>
</g>
<!-- 7739&#45;&gt;8239 -->
<g id="edge10" class="edge">
<title>7739&#45;&gt;8239</title>
<path fill="none" stroke="white" d="M149.07,-87.49C153.09,-78.36 157.81,-67.64 162.17,-57.74"/>
<polygon fill="white" stroke="white" points="165.38,-59.14 166.21,-48.57 158.98,-56.31 165.38,-59.14"/>
</g>
<!-- Raíz -->
<g id="node11" class="node">
<title>Raíz</title>
<ellipse fill="none" stroke="#607b8b" cx="65.16" cy="-541" rx="25.81" ry="25"/>
<text text-anchor="middle" x="65.16" y="-537.3" font-family="Arial" font-size="14.00" fill="white">Raíz</text>
</g>
<!-- Raíz&#45;&gt;4064 -->
<g id="edge1" class="edge">
<title>Raíz&#45;&gt;4064</title>
<path fill="none" stroke="white" d="M65.16,-515.7C65.16,-507.78 65.16,-498.83 65.16,-490.31"/>
<polygon fill="white" stroke="white" points="68.66,-490.24 65.16,-480.24 61.66,-490.24 68.66,-490.24"/>
</g>
</g>
</svg>
