<?xml version="1.0" encoding="UTF-8" standalone="no"?>
<!DOCTYPE svg PUBLIC "-//W3C//DTD SVG 1.1//EN"
 "http://www.w3.org/Graphics/SVG/1.1/DTD/svg11.dtd">
<!-- Generated by graphviz version 6.0.2 (20221011.1828)
 -->
<!-- Title: Figura Pages: 1 -->
<svg width="280pt" height="488pt"
 viewBox="0.00 0.00 280.16 488.00" xmlns="http://www.w3.org/2000/svg" xmlns:xlink="http://www.w3.org/1999/xlink">
<g id="graph0" class="graph" transform="scale(1 1) rotate(0) translate(4 484)">
<title>Figura</title>
<!-- 1911 -->
<g id="1911" class="node">
<title>1911</title>
<ellipse fill="none" stroke="#607b8b" cx="96" cy="-369" rx="28.31" ry="25"/>
<text text-anchor="middle" x="96" y="-365.3" font-family="Arial" font-size="14.00" fill="white">1911</text>
</g>
<!-- 284 -->
<g id="284" class="node">
<title>284</title>
<ellipse fill="none" stroke="#607b8b" cx="96" cy="-283" rx="25" ry="25"/>
<text text-anchor="middle" x="96" y="-279.3" font-family="Arial" font-size="14.00" fill="white">284</text>
</g>
<!-- 1911&#45;&gt;284 -->
<g id="edge2" class="edge">
<title>1911&#45;&gt;284</title>
<path fill="none" stroke="white" d="M96,-343.7C96,-335.78 96,-326.83 96,-318.31"/>
<polygon fill="white" stroke="white" points="99.5,-318.24 96,-308.24 92.5,-318.24 99.5,-318.24"/>
</g>
<!-- 2685 -->
<g id="2685" class="node">
<title>2685</title>
<ellipse fill="none" stroke="#607b8b" cx="59" cy="-197" rx="28.31" ry="25"/>
<text text-anchor="middle" x="59" y="-193.3" font-family="Arial" font-size="14.00" fill="white">2685</text>
</g>
<!-- 284&#45;&gt;2685 -->
<g id="edge3" class="edge">
<title>284&#45;&gt;2685</title>
<path fill="none" stroke="white" d="M86.28,-259.93C82.22,-250.72 77.43,-239.85 73.01,-229.8"/>
<polygon fill="white" stroke="white" points="76.15,-228.25 68.91,-220.51 69.74,-231.07 76.15,-228.25"/>
</g>
<!-- 7141 -->
<g id="7141" class="node">
<title>7141</title>
<ellipse fill="none" stroke="#607b8b" cx="133" cy="-197" rx="28.31" ry="25"/>
<text text-anchor="middle" x="133" y="-193.3" font-family="Arial" font-size="14.00" fill="white">7141</text>
</g>
<!-- 284&#45;&gt;7141 -->
<g id="edge4" class="edge">
<title>284&#45;&gt;7141</title>
<path fill="none" stroke="white" d="M105.72,-259.93C109.78,-250.72 114.57,-239.85 118.99,-229.8"/>
<polygon fill="white" stroke="white" points="122.26,-231.07 123.09,-220.51 115.85,-228.25 122.26,-231.07"/>
</g>
<!-- 4432 -->
<g id="4432" class="node">
<title>4432</title>
<ellipse fill="none" stroke="#607b8b" cx="96" cy="-111" rx="28.31" ry="25"/>
<text text-anchor="middle" x="96" y="-107.3" font-family="Arial" font-size="14.00" fill="white">4432</text>
</g>
<!-- 7141&#45;&gt;4432 -->
<g id="edge5" class="edge">
<title>7141&#45;&gt;4432</title>
<path fill="none" stroke="white" d="M123.08,-173.49C119.06,-164.36 114.34,-153.64 109.98,-143.74"/>
<polygon fill="white" stroke="white" points="113.18,-142.31 105.94,-134.57 106.77,-145.14 113.18,-142.31"/>
</g>
<!-- 8973 -->
<g id="8973" class="node">
<title>8973</title>
<ellipse fill="none" stroke="#607b8b" cx="170" cy="-111" rx="28.31" ry="25"/>
<text text-anchor="middle" x="170" y="-107.3" font-family="Arial" font-size="14.00" fill="white">8973</text>
</g>
<!-- 7141&#45;&gt;8973 -->
<g id="edge8" class="edge">
<title>7141&#45;&gt;8973</title>
<path fill="none" stroke="white" d="M142.92,-173.49C146.94,-164.36 151.66,-153.64 156.02,-143.74"/>
<polygon fill="white" stroke="white" points="159.23,-145.14 160.06,-134.57 152.82,-142.31 159.23,-145.14"/>
</g>
<!-- 387 -->
<g id="387" class="node">
<title>387</title>
<ellipse fill="none" stroke="#607b8b" cx="25" cy="-25" rx="25" ry="25"/>
<text text-anchor="middle" x="25" y="-21.3" font-family="Arial" font-size="14.00" fill="white">387</text>
</g>
<!-- 4432&#45;&gt;387 -->
<g id="edge6" class="edge">
<title>4432&#45;&gt;387</title>
<path fill="none" stroke="white" d="M79.53,-90.52C69.92,-79.15 57.67,-64.65 47.21,-52.28"/>
<polygon fill="white" stroke="white" points="49.78,-49.89 40.65,-44.51 44.43,-54.41 49.78,-49.89"/>
</g>
<!-- 5980 -->
<g id="5980" class="node">
<title>5980</title>
<ellipse fill="none" stroke="#607b8b" cx="96" cy="-25" rx="28.31" ry="25"/>
<text text-anchor="middle" x="96" y="-21.3" font-family="Arial" font-size="14.00" fill="white">5980</text>
</g>
<!-- 4432&#45;&gt;5980 -->
<g id="edge7" class="edge">
<title>4432&#45;&gt;5980</title>
<path fill="none" stroke="white" d="M96,-85.7C96,-77.78 96,-68.83 96,-60.31"/>
<polygon fill="white" stroke="white" points="99.5,-60.24 96,-50.24 92.5,-60.24 99.5,-60.24"/>
</g>
<!-- 8438 -->
<g id="8438" class="node">
<title>8438</title>
<ellipse fill="none" stroke="#607b8b" cx="170" cy="-25" rx="28.31" ry="25"/>
<text text-anchor="middle" x="170" y="-21.3" font-family="Arial" font-size="14.00" fill="white">8438</text>
</g>
<!-- 8973&#45;&gt;8438 -->
<g id="edge9" class="edge">
<title>8973&#45;&gt;8438</title>
<path fill="none" stroke="white" d="M170,-85.7C170,-77.78 170,-68.83 170,-60.31"/>
<polygon fill="white" stroke="white" points="173.5,-60.24 170,-50.24 166.5,-60.24 173.5,-60.24"/>
</g>
<!-- 8999 -->
<g id="8999" class="node">
<title>8999</title>
<ellipse fill="none" stroke="#607b8b" cx="244" cy="-25" rx="28.31" ry="25"/>
<text text-anchor="middle" x="244" y="-21.3" font-family="Arial" font-size="14.00" fill="white">8999</text>
</g>
<!-- 8973&#45;&gt;8999 -->
<g id="edge10" class="edge">
<title>8973&#45;&gt;8999</title>
<path fill="none" stroke="white" d="M187.16,-90.52C197.04,-79.31 209.59,-65.06 220.39,-52.8"/>
<polygon fill="white" stroke="white" points="223.2,-54.9 227.19,-45.09 217.95,-50.28 223.2,-54.9"/>
</g>
<!-- Root -->
<g id="node11" class="node">
<title>Root</title>
<ellipse fill="none" stroke="#607b8b" cx="96" cy="-455" rx="26.43" ry="25"/>
<text text-anchor="middle" x="96" y="-451.3" font-family="Arial" font-size="14.00" fill="white">Root</text>
</g>
<!-- Root&#45;&gt;1911 -->
<g id="edge1" class="edge">
<title>Root&#45;&gt;1911</title>
<path fill="none" stroke="white" d="M96,-429.7C96,-421.78 96,-412.83 96,-404.31"/>
<polygon fill="white" stroke="white" points="99.5,-404.24 96,-394.24 92.5,-404.24 99.5,-404.24"/>
</g>
</g>
</svg>
